<svg class="svg-icon" style="width: 1em; height: 1em;vertical-align: middle;fill: currentColor;overflow: hidden;" viewBox="0 0 1024 1024" version="1.1" xmlns="http://www.w3.org/2000/svg"><path d="M494.901223 703.458137c-18.302916 0-36.605833-1.926623-54.908749-6.020696-135.826905-30.103481-221.802446-164.967074-191.939793-300.793979 14.449671-65.746002 53.945437-121.85889 110.539981-158.223895 56.835372-36.124177 124.267168-48.165569 190.013171-33.715898 65.746002 14.449671 122.099718 53.945437 158.223894 110.539981s48.165569 124.267168 33.715899 190.01317c-14.449671 65.746002-53.945437 122.099718-110.539982 158.223895-41.181562 26.491063-87.661336 39.977422-135.104421 39.977422z m-0.963311-492.252116c-45.275635 0-89.347131 12.763876-128.361242 37.809971-53.945437 34.438382-91.273754 87.902164-105.241769 150.276576-28.658514 129.083725 53.222954 257.204139 182.306679 285.862653 62.61524 13.727187 126.675447 2.408278 180.620885-32.030103s91.273754-87.902164 105.241768-150.276576c13.727187-62.61524 2.408278-126.675447-32.030103-180.620884s-87.902164-91.273754-150.276576-105.241769c-17.580433-3.853246-34.920038-5.779868-52.259642-5.779868z" fill="#4C4C4C" /><path d="M598.457197 455.405456c-60.206961 0-120.173095-10.837253-178.93509-32.270931-72.970837-26.731891-122.340546-62.856068-140.643462-77.305739-0.481656-0.240828-0.963311-0.722484-1.444967-1.204139-4.575729-4.575729-1.204139-8.669802-0.963311-9.151458 1.926623-2.167451 5.057385-3.612418 9.873942 0.240828 33.234243 26.491063 210.724365 155.093133 452.033866 87.420508 3.37159-0.963311 6.74318 0.963311 7.706491 4.334901s-0.963311 6.74318-4.334901 7.706491c-47.683913 13.486359-95.608655 20.229539-143.292568 20.229539zM642.528692 292.365005c-90.069614 0-183.992474-39.736595-221.32079-55.631233-2.889934-1.204139-5.779868-2.408278-7.947319-3.371589-2.167451 0.963311-4.575729 0.722484-6.502352-0.722484-2.649106-1.926623-7.706491-5.779868-4.575729-10.837253 2.889934-5.057385 8.428975-2.889934 12.041393-1.444967 2.889934 1.204139 6.74318 2.889934 11.800564 5.057385 40.459078 17.098777 147.627469 62.374412 242.031985 53.463781 3.37159-0.240828 6.502352 2.167451 6.74318 5.539041s-2.167451 6.502352-5.539041 6.743179c-8.91063 0.722484-17.821261 1.204139-26.731891 1.20414zM642.76952 376.895579c-101.870179 0-210.001881-32.752587-312.112888-95.367827-0.722484-0.481656-1.444967-0.963311-1.926623-1.20414-1.444967 0-2.889934-0.481656-3.853245-1.685795-3.853246-3.37159-4.575729-6.74318-2.167451-9.873941 3.612418-4.816557 7.224835-2.408278 14.690499 2.16745 127.638758 78.509878 264.91063 109.095014 386.287864 86.216369 3.37159-0.722484 6.74318 1.685795 7.224836 5.057385 0.722484 3.37159-1.685795 6.74318-5.057385 7.224835-26.972719 5.057385-54.667921 7.465663-83.085607 7.465664z" fill="#4C4C4C" /><path d="M584.248354 525.727187c-94.886171 0-165.930386-20.711195-213.855127-41.904045-76.342427-33.715898-111.74412-75.379116-113.189088-77.064911-2.167451-2.649106-1.926623-6.502352 0.722484-8.91063 2.649106-2.167451 6.502352-1.926623 8.91063 0.722484 0.240828 0.481656 35.401693 41.422389 109.335842 73.934148 68.395108 30.103481 184.955786 59.002822 352.331138 25.527752 3.37159-0.722484 6.74318 1.444967 7.465664 4.816557 0.722484 3.37159-1.444967 6.74318-4.816557 7.465663-54.186265 11.078081-103.074318 15.412982-146.904986 15.412982zM618.686736 597.253057c-115.597366 0-201.813735-23.360301-257.444967-45.516462-74.174976-29.380997-110.539981-61.892756-111.984949-63.096896-2.649106-2.408278-2.649106-6.261524-0.481655-8.91063s6.261524-2.649106 8.91063-0.481656c0.481656 0.481656 36.84666 32.752587 108.854186 61.170273 66.709313 26.250235 178.694262 54.667921 333.064911 40.699906 3.37159-0.240828 6.502352 2.167451 6.743179 5.53904 0.240828 3.37159-2.167451 6.502352-5.53904 6.74318-28.899341 2.649106-56.353716 3.853246-82.122295 3.853245zM581.35842 663.721543c-159.187206 0-301.275635-85.493885-302.720603-86.457197-2.889934-1.685795-3.853246-5.53904-2.16745-8.669802 1.685795-2.889934 5.53904-3.853246 8.669802-2.167451 1.685795 0.963311 174.600188 104.760113 350.163688 80.918156 3.37159-0.481656 6.502352 1.926623 6.984008 5.298213s-1.926623 6.502352-5.298213 6.984007c-18.784572 3.130762-37.328316 4.094073-55.631232 4.094074z" fill="#4C4C4C" /><path d="M442.64158 697.919097c-0.481656 0-0.963311 0-1.444967-0.240828-3.37159-0.722484-5.53904-4.094073-4.816557-7.465663l106.20508-480.451552c0.722484-3.37159 4.094073-5.53904 7.465664-4.816557 3.37159 0.722484 5.53904 4.094073 4.816557 7.465663l-106.20508 480.451552c-0.722484 2.889934-3.130762 5.057385-6.020697 5.057385zM371.11571 664.203198c-2.889934 0-5.298213-1.926623-6.020696-4.816556-35.883349-146.182502-6.74318-261.057385 23.841957-331.860772 33.234243-76.583255 74.656632-118.246472 76.342427-119.932267 2.408278-2.408278 6.502352-2.408278 8.91063 0s2.408278 6.502352 0 8.91063c-0.481656 0.481656-41.663217 41.904045-73.934148 116.560678-29.862653 68.876764-58.039511 180.620884-23.119474 323.431796 0.722484 3.37159-1.204139 6.74318-4.575729 7.465664-0.481656 0.240828-0.963311 0.240828-1.444967 0.240827zM523.559737 701.531515c-1.204139 0-2.408278-0.481656-3.612418-1.20414-2.889934-1.926623-3.612418-5.779868-1.444967-8.669802 87.661336-124.989652 112.225776-238.901223 117.283161-312.353716 5.53904-79.473189-9.633114-130.287865-9.873942-130.76952-0.963311-3.37159 0.722484-6.74318 4.094073-7.706491 3.37159-0.963311 6.74318 0.722484 7.706491 4.094073 0.722484 2.167451 16.135466 52.982126 10.355598 134.622766-5.298213 75.138288-30.344309 191.458137-119.691439 319.096895-0.963311 2.167451-2.889934 2.889934-4.816557 2.889935z" fill="#4C4C4C" /><path d="M494.419567 738.859831c-20.470367 0-41.422389-2.167451-62.133584-6.74318-40.699906-8.91063-77.787394-26.009407-110.780809-50.814675-2.649106-2.167451-3.37159-6.020696-1.204139-8.669803 2.167451-2.649106 6.020696-3.37159 8.669802-1.204139 31.548448 23.841957 67.190969 40.21825 105.964252 48.647225 19.988711 4.334901 39.736595 6.502352 59.484478 6.502352 126.193791 0 240.34619-87.661336 268.523048-215.78175 32.752587-148.109125-61.170273-295.254939-209.279398-328.007526-3.37159-0.722484-5.53904-4.094073-4.816557-7.465663 0.722484-3.37159 3.853246-5.53904 7.224836-4.816557C711.164628 204.703669 809.181562 358.592662 774.984008 513.444967c-29.380997 133.659454-148.590781 225.414864-280.564441 225.414864z" fill="#4C4C4C" /><path d="M489.121355 798.585136c-3.37159 0-6.261524-2.889934-6.261524-6.261524v-51.055503c0-3.37159 2.889934-6.261524 6.261524-6.261524s6.261524 2.889934 6.261524 6.261524V792.323612c0 3.612418-2.649106 6.261524-6.261524 6.261524z" fill="#4C4C4C" /><path d="M688.526811 843.860771H289.715898c-3.37159 0-6.261524-2.889934-6.261524-6.261524V828.447789c0-22.156162 18.062088-39.977422 39.977423-39.977422h331.138288c22.156162 0 39.977422 18.062088 39.977422 39.977422v9.151458c0.240828 3.37159-2.408278 6.261524-6.020696 6.261524z m-392.549389-12.523048h386.287865V828.447789c0-15.172154-12.28222-27.454374-27.454374-27.454374H323.672625c-15.172154 0-27.454374 12.28222-27.454375 27.454374v2.889934z" fill="#4C4C4C" /></svg>